<?xml version="1.0" encoding="utf-8"?>
<!-- Generator: Adobe Illustrator 16.0.0, SVG Export Plug-In . SVG Version: 6.00 Build 0)  -->
<!DOCTYPE svg PUBLIC "-//W3C//DTD SVG 1.1//EN" "http://www.w3.org/Graphics/SVG/1.1/DTD/svg11.dtd">
<svg version="1.1" id="Capa_1" xmlns="http://www.w3.org/2000/svg" xmlns:xlink="http://www.w3.org/1999/xlink" x="0px" y="0px"
	 width="528px" height="528px" viewBox="0 0 528 528" enable-background="new 0 0 528 528" xml:space="preserve">
<polygon fill="#FFFFFF" points="34,298.278 44,298.271 44,248.271 64,268.271 72,260.271 44,232.271 34,238.271 "/>
<polygon fill="#FFFFFF" points="248.544,99.659 244.162,96.088 50,290.271 54,294.271 104,244.271 104,298.271 114,298.271 
	114,234.271 "/>
<polygon fill="#FFFFFF" points="194,242.265 194,232.265 140,232.265 134,236.265 134,294.265 140,298.265 194,298.265 194,288.265 
	144,288.265 144,268.265 214,268.265 214,262.265 144,262.265 144,242.265 "/>
<path fill="#FFFFFF" d="M380.993,149.362l-4.011-3.988L234.084,288.271l0.001-48h33.79l8.664-8.685c0,0-2.462-0.6-3.523-0.801
	c-1.319-0.25-5.016-0.515-5.016-0.515h-37.915l-6,4l0.043,62.524l0.005,0.006l5.952,3.47L380.993,149.362z"/>
<path fill="#FFFFFF" d="M244,300.271h22c0,0,14.646,0.937,25.792-10.21c5.604-5.604,10.208-14.164,10.208-24.771
	c0-10.707-4.929-17.948-4.929-17.948l-7.394,7.394c0,0,2.322,4.432,2.322,10.535c0,8.187-3.936,14.399-7.123,17.586
	c-8.042,8.041-17.792,7.458-17.792,7.458L254,290.271L244,300.271z"/>
<polygon fill="#FFFFFF" points="382,242.271 382,232.271 328,232.271 322,236.271 322,294.271 328,298.271 382,298.271 382,288.271 
	332,288.271 332,268.271 402,268.271 402,262.271 332,262.271 332,242.271 "/>
<polygon fill="#FFFFFF" points="414,298.271 423.979,298.271 424,248.271 444,268.265 452,260.265 424,232.265 414,238.265 "/>
<polygon fill="#FFFFFF" points="506,214.265 430,290.265 434,294.265 484,244.265 484,298.265 494,298.265 494,234.265 510,218.265 
	"/>
<path fill="#FFFFFF" d="M264,57.481c-9.941,0-18,8.059-18,18s8.059,18,18,18c9.941,0,18-8.059,18-18S273.941,57.481,264,57.481z
	 M264,91.481c-8.837,0-16-7.163-16-16s7.163-16,16-16s16,7.163,16,16S272.837,91.481,264,91.481z"/>
<path fill="#FFFFFF" d="M396.667,117.515c-6.628,0-12,5.373-12,12c0,6.628,5.372,12,12,12c6.627,0,12-5.372,12-12
	C408.667,122.888,403.294,117.515,396.667,117.515z M396.667,139.515c-5.523,0-10-4.477-10-10c0-5.522,4.477-10,10-10
	c5.522,0,10,4.478,10,10C406.667,135.038,402.189,139.515,396.667,139.515z"/>
<path fill="#FFFFFF" d="M264,425.518c-16.57,0-30,13.43-30,30s13.43,30,30,30c16.57,0,30-13.43,30-30S280.57,425.518,264,425.518z
	 M264,483.518c-15.465,0-28-12.535-28-28c0-15.467,12.535-28,28-28c15.466,0,28,12.533,28,28
	C292,470.982,279.466,483.518,264,483.518z"/>
<text transform="matrix(1.1 0 0 1 32.9224 324.7285)" fill="#FFFFFF" font-family="'DINPro-Regular'" font-size="21">MEMORIA DIGITAL DEL ESPACIO EN MÉXICO</text>
<path fill="#FFFFFF" d="M381.456,113.628c-25.487-19.733-56.077-33.196-89.457-38.072c-0.002,1.357-0.104,2.692-0.293,3.998
	c32.492,4.799,62.273,17.908,87.118,37.097C379.609,115.563,380.49,114.553,381.456,113.628z"/>
<path fill="#FFFFFF" d="M450.922,221.518c-6.745-28.756-19.944-55.021-37.999-77.18c-0.9,0.987-1.892,1.891-2.958,2.7
	c17.413,21.425,30.199,46.757,36.85,74.479H450.922z"/>
<path fill="#FFFFFF" d="M81.186,221.518C98.89,147.68,160.15,90.799,236.293,79.554c-0.188-1.306-0.291-2.64-0.292-3.998
	C157.778,86.982,94.874,145.557,77.066,221.518H81.186z"/>
<g>
	<path fill="#FFFFFF" d="M438.914,334.518c-22.814,57.802-73.436,101.579-135.388,114.835c0.203,1.313,0.341,2.646,0.413,3.998
		c63.99-13.538,116.204-58.941,139.273-118.833H438.914z"/>
	<path fill="#FFFFFF" d="M224.474,449.353c-61.952-13.256-112.573-57.033-135.387-114.835h-4.3
		c23.069,59.892,75.285,105.294,139.273,118.833C224.132,451.999,224.271,450.665,224.474,449.353z"/>
</g>
<g>
</g>
</svg>
