<?xml version="1.0" encoding="utf-8"?>
<!-- Generator: Adobe Illustrator 16.0.0, SVG Export Plug-In . SVG Version: 6.00 Build 0)  -->
<!DOCTYPE svg PUBLIC "-//W3C//DTD SVG 1.1//EN" "http://www.w3.org/Graphics/SVG/1.1/DTD/svg11.dtd">
<svg version="1.1" xmlns="http://www.w3.org/2000/svg" 
	xmlns:xlink="http://www.w3.org/1999/xlink" 
	x="0px" y="0px" 
	viewBox="0 0 528 528" 
	enable-background="new 0 0 528 528" 
	xml:space="preserve">

	<g id="mask">
		<defs>
			<path id="SVGID_1_" d="M0,0v528h528V0H0z M397.175,104.515c13.808,0,25,11.193,25,25c0,13.808-11.192,25-25,25
				c-13.807,0-25-11.192-25-25C372.175,115.708,383.368,104.515,397.175,104.515z M264,46.25c15.879,0,28.75,12.872,28.75,28.75
				s-12.871,28.75-28.75,28.75c-15.878,0-28.75-12.872-28.75-28.75S248.122,46.25,264,46.25z M264,493.001
				c-22.091,0-40-17.908-40-40.001c0-22.092,17.909-40,40-40c22.093,0,40,17.908,40,40C304,475.093,286.093,493.001,264,493.001z
				M461.666,338.518H66.333v-117h395.333V338.518z"/>
		</defs>
		<clipPath id="SVGID_2_">
			<use xlink:href="#SVGID_1_"  overflow="visible"/>
		</clipPath>
		
			<circle clip-path="url(#SVGID_2_)" fill="none" stroke="#272525" stroke-width="5" stroke-miterlimit="10" cx="264" cy="264" r="189"/>
	</g>

	<g id="planeta01">
		<circle fill="none" stroke="#272525" stroke-width="2" stroke-miterlimit="10" cx="264" cy="75" r="17"/>
	</g>

	<g id="planeta02">
		<circle fill="none" stroke="#272525" stroke-width="2" stroke-miterlimit="10" cx="397.175" cy="129.515" r="11"/>
	</g>

	<g id="Planeta03">
		<circle fill="none" stroke="#272525" stroke-width="2" stroke-miterlimit="10" cx="264.509" cy="455.351" r="29"/>
	</g>

	<g id="tipos">
		<polygon fill="#272525" points="34.508,298.278 44.508,298.271 44.508,248.271 64.508,268.271 72.508,260.271 44.508,232.271 
			34.508,238.271 	"/>
		<polygon fill="#272525" points="104.508,243.271 104.508,298.271 114.508,298.271 114.508,233.271 	"/>
		<polygon fill="#272525" points="194.508,242.265 194.508,232.265 140.508,232.265 134.508,236.265 134.508,294.265 
			140.508,298.265 194.508,298.265 194.508,288.265 144.508,288.265 144.508,242.265 	"/>
		<path fill="#272525" d="M234.592,288.5l0.001-48.229h33.79l8.664-8.685c0,0-2.462-0.6-3.523-0.801
			c-1.319-0.25-5.016-0.515-5.016-0.515h-37.915l-6,4l0.048,64.041l0.226,0.182L234.592,288.5z"/>
		<path fill="#272525" d="M244.508,300.271h22c0,0,14.646,0.937,25.792-10.21c5.604-5.604,10.208-14.164,10.208-24.771
			c0-10.707-4.929-17.948-4.929-17.948l-7.394,7.394c0,0,2.322,4.432,2.322,10.535c0,8.187-3.936,14.399-7.123,17.586
			c-8.042,8.041-17.792,7.458-17.792,7.458l-13.085-0.044L244.508,300.271z"/>
		<polygon fill="#272525" points="382.508,242.271 382.508,232.271 328.508,232.271 322.508,236.271 322.508,294.271 
			328.508,298.271 382.508,298.271 382.508,288.271 332.508,288.271 332.508,242.271 	"/>
		<polygon fill="#272525" points="414.508,298.271 424.486,298.271 424.508,248.271 444.508,268.265 452.508,260.265 
			424.508,232.265 414.508,238.265 	"/>
		<polygon fill="#272525" points="484.508,243.265 484.508,298.265 494.508,298.265 494.508,233.265 	"/>
		<text transform="matrix(1.1 0 0 1 34.8281 327.7285)" fill="#272525" font-family="'Roboto'" font-size="21">MEMORIA DIGITAL DEL ESPACIO EN MÉXICO</text>
	<g>

	</g>
		
		<line fill="none" stroke="#272525" stroke-width="5.5" stroke-miterlimit="10" x1="52.122" y1="292.667" x2="246.861" y2="97.874"/>
		
		<line fill="none" stroke="#272525" stroke-width="5.5" stroke-miterlimit="10" x1="226.6" y1="300.291" x2="379.324" y2="147.524"/>
		
		<line fill="none" stroke="#272525" stroke-width="5.5" stroke-miterlimit="10" x1="432.505" y1="292.289" x2="508.492" y2="216.28"/>
		
		<line fill="none" stroke="#272525" stroke-width="5.5" stroke-miterlimit="10" x1="144.299" y1="265.25" x2="214.508" y2="265.25"/>
		
		<line fill="none" stroke="#272525" stroke-width="5.5" stroke-miterlimit="10" x1="332.304" y1="265.25" x2="402.513" y2="265.25"/>
	</g>

</svg>
