<?xml version="1.0" encoding="utf-8"?>
<!-- Generator: Adobe Illustrator 16.0.0, SVG Export Plug-In . SVG Version: 6.00 Build 0)  -->
<!DOCTYPE svg PUBLIC "-//W3C//DTD SVG 1.1//EN" "http://www.w3.org/Graphics/SVG/1.1/DTD/svg11.dtd">
<svg version="1.1" id="w" 
		xmlns="http://www.w3.org/2000/svg" 
		xmlns:xlink="http://www.w3.org/1999/xlink" 
		x="0px" y="0px" 
	 	viewBox="0 0 234 234" 
		enable-background="new 0 0 234 234" 
		xml:space="preserve">
<g>
	<path fill="#FF5A3C" d="M124.93,174.5c-4.378,3.826-11.479,3.826-15.858,0L6,102.305v42.918c0,3.143,1.626,5.95,4.177,7.828
		L114.02,225.92c1.646,1.439,4.314,1.439,5.961,0l103.832-72.862c2.559-1.878,4.187-4.688,4.187-7.835v-42.919L124.93,174.5z"/>
	<path fill="#FF5A3C" d="M216.288,7H17.712C11.244,7,6,11.58,6,17.231v70.254c0,3.143,1.626,5.951,4.177,7.829l103.843,72.87
		c1.646,1.439,4.314,1.439,5.961,0l103.832-72.863c2.559-1.877,4.187-4.689,4.187-7.835V17.231C228,11.58,222.756,7,216.288,7z"/>
	<text transform="matrix(1 0 0 1 43.7598 81.0508)" fill="#FFFFFF" font-weight="400" font-family="'Titillium Web'" font-size="63.5769">Scroll</text>
</g>
</svg>
