<?xml version="1.0" encoding="utf-8"?>
<!-- Generator: Adobe Illustrator 16.0.0, SVG Export Plug-In . SVG Version: 6.00 Build 0)  -->
<!DOCTYPE svg PUBLIC "-//W3C//DTD SVG 1.1//EN" "http://www.w3.org/Graphics/SVG/1.1/DTD/svg11.dtd">
<svg version="1.1" 
	xmlns="http://www.w3.org/2000/svg" 
	xmlns:xlink="http://www.w3.org/1999/xlink" 
	x="0px" y="0px"
	viewBox="0 0 256 256" 
	enable-background="new 0 0 256 256" 
	xml:space="preserve">

<defs>
    <mask id="mask">
        <path fill="white" d="M132.96-62.667c-8.91,4.048-18.509,6.708-28.447,7.979c10.175-6.126,18.046-15.844,21.739-27.521
		c-9.6,5.782-20.237,9.83-31.451,12.14c-9.136-9.943-21.977-15.726-36.544-15.726c-27.172,0-49.379,22.202-49.379,49.61
		c0,3.93,0.463,7.747,1.271,11.333c-41.169-2.084-77.826-21.858-102.225-51.807c-4.28,7.284-6.708,15.844-6.708,24.862
		c0,17.233,8.673,32.496,22.089,41.169c-8.21,0-15.844-2.315-22.552-5.782c0,0,0,0,0,0.35c0,24.048,17.115,44.167,39.78,48.684
		c-4.162,1.152-8.555,1.739-13.066,1.739c-3.123,0-6.245-0.361-9.249-0.926c6.245,19.537,24.398,34.104,46.256,34.455
		C-52.41,81.309-73.805,89.169-97.164,89.169c-3.93,0-7.866-0.237-11.796-0.689c21.971,14.105,48.108,22.315,76.093,22.315
		c91.124,0,141.197-75.63,141.197-141.197c0-2.196,0-4.28-0.113-6.477C117.929-43.818,126.252-52.604,132.96-62.667z"/>
    </mask>
</defs>

<g id="Envolvente">
	<circle fill="#F00" mask="url(#mask)" cx="12" cy="12" r="198.54"/>
</g>


</svg>